<svg id="Ebene_1" data-name="Ebene 1" xmlns="http://www.w3.org/2000/svg" xmlns:xlink="http://www.w3.org/1999/xlink" viewBox="0 0 281.82 61.92"><defs><style>.cls-1{fill:url(#Unbenannter_Verlauf_17);}.cls-2{fill:url(#Unbenannter_Verlauf_17-2);}.cls-3{fill:url(#Unbenannter_Verlauf_17-3);}</style><linearGradient id="Unbenannter_Verlauf_17" x1="-0.53" y1="30.96" x2="283.03" y2="30.96" gradientUnits="userSpaceOnUse"><stop offset="0" stop-color="#8ec4c7"/><stop offset="1" stop-color="#0e3d47"/></linearGradient><linearGradient id="Unbenannter_Verlauf_17-2" x1="-0.53" y1="30.53" x2="283.03" y2="30.53" xlink:href="#Unbenannter_Verlauf_17"/><linearGradient id="Unbenannter_Verlauf_17-3" x1="-0.53" y1="30.96" x2="283.03" y2="30.96" xlink:href="#Unbenannter_Verlauf_17"/></defs><title>cargo_logo_wide</title><path class="cls-1" d="M21.33,51.51A10.51,10.51,0,0,1,10.66,61.92,10.56,10.56,0,0,1,0,51.51V10.41A10.55,10.55,0,0,1,10.66,0,10.5,10.5,0,0,1,21.33,10.41a1.9,1.9,0,0,1-3.79,0,6.69,6.69,0,0,0-6.88-6.63,6.75,6.75,0,0,0-6.88,6.63v41.1a6.75,6.75,0,0,0,6.88,6.63,6.69,6.69,0,0,0,6.88-6.63,1.9,1.9,0,0,1,3.79,0Z"/><path class="cls-2" d="M65.79,61.06a1.91,1.91,0,0,1-1.89-1.89V10.84C63.9,4.82,68.71,0,74.13,0S84.37,4.82,84.37,10.84V59.17a1.9,1.9,0,0,1-3.79,0V32.85H67.68V59.17A1.91,1.91,0,0,1,65.79,61.06ZM80.58,10.84c0-4-2.84-7.06-6.45-7.06s-6.45,3-6.45,7.06V29.07h12.9Z"/><path class="cls-3" d="M130.12,61.06a1.91,1.91,0,0,1-1.9-1.89V2.75a1.91,1.91,0,0,1,1.9-1.89h11.52a10,10,0,0,1,9.8,10.06A9.43,9.43,0,0,1,147,19a8.78,8.78,0,0,1,4.47,7.82V59.17a1.89,1.89,0,1,1-3.78,0V26.83a5.9,5.9,0,0,0-6-5.85H132V59.17A1.91,1.91,0,0,1,130.12,61.06ZM132,17.2h9.63a6.21,6.21,0,0,0,6-6.28,6.21,6.21,0,0,0-6-6.28H132Z"/><path class="cls-1" d="M216.63,31V51.51a10.67,10.67,0,0,1-21.33,0V10.41a10.67,10.67,0,0,1,21.33,0,1.89,1.89,0,1,1-3.78,0,6.88,6.88,0,0,0-13.76,0v41.1a6.88,6.88,0,0,0,13.76,0V32.85H207.6a1.89,1.89,0,1,1,0-3.78h7.14A1.91,1.91,0,0,1,216.63,31Z"/><path class="cls-1" d="M271.16,61.92a10.56,10.56,0,0,1-10.67-10.41V10.41a10.67,10.67,0,0,1,21.33,0v41.1A10.56,10.56,0,0,1,271.16,61.92Zm0-58.14a6.74,6.74,0,0,0-6.88,6.63v41.1a6.88,6.88,0,0,0,13.76,0V10.41A6.75,6.75,0,0,0,271.16,3.78Z"/></svg>