<svg id="Ebene_1" data-name="Ebene 1" xmlns="http://www.w3.org/2000/svg" xmlns:xlink="http://www.w3.org/1999/xlink" viewBox="0 0 23.22 474.72"><defs><style>.cls-1{fill:url(#Unbenannter_Verlauf_17);}.cls-2{fill:url(#Unbenannter_Verlauf_17-2);}.cls-3{fill:url(#Unbenannter_Verlauf_17-3);}</style><linearGradient id="Unbenannter_Verlauf_17" x1="10.66" y1="0.28" x2="10.66" y2="472.93" gradientUnits="userSpaceOnUse"><stop offset="0" stop-color="#8ec4c7"/><stop offset="1" stop-color="#0e3d47"/></linearGradient><linearGradient id="Unbenannter_Verlauf_17-2" x1="10.23" y1="0.28" x2="10.23" y2="472.93" xlink:href="#Unbenannter_Verlauf_17"/><linearGradient id="Unbenannter_Verlauf_17-3" x1="11.61" y1="0.28" x2="11.61" y2="472.93" xlink:href="#Unbenannter_Verlauf_17"/></defs><title>cargo_logo</title><path class="cls-1" d="M21.33,51.51A10.51,10.51,0,0,1,10.66,61.92,10.56,10.56,0,0,1,0,51.51V10.41A10.55,10.55,0,0,1,10.66,0,10.5,10.5,0,0,1,21.33,10.41a1.9,1.9,0,0,1-3.79,0,6.69,6.69,0,0,0-6.88-6.63,6.75,6.75,0,0,0-6.88,6.63v41.1a6.75,6.75,0,0,0,6.88,6.63,6.69,6.69,0,0,0,6.88-6.63,1.9,1.9,0,0,1,3.79,0Z"/><path class="cls-2" d="M1.89,164.26A1.91,1.91,0,0,1,0,162.37V114c0-6,4.82-10.84,10.23-10.84S20.47,108,20.47,114v48.33a1.9,1.9,0,0,1-3.79,0V136.05H3.78v26.32A1.91,1.91,0,0,1,1.89,164.26ZM16.68,114c0-4.05-2.83-7.06-6.45-7.06S3.78,110,3.78,114v18.23h12.9Z"/><path class="cls-3" d="M1.89,267.46A1.91,1.91,0,0,1,0,265.57V209.15a1.91,1.91,0,0,1,1.89-1.89H13.42a10,10,0,0,1,9.8,10.06,9.45,9.45,0,0,1-4.47,8.09,8.8,8.8,0,0,1,4.47,7.82v32.34a1.89,1.89,0,0,1-3.78,0V233.23a5.9,5.9,0,0,0-6-5.85H3.78v38.19A1.91,1.91,0,0,1,1.89,267.46ZM3.78,223.6h9.64a6.29,6.29,0,0,0,0-12.56H3.78Z"/><path class="cls-1" d="M21.33,340.56v20.55a10.51,10.51,0,0,1-10.67,10.41A10.56,10.56,0,0,1,0,361.11V320A10.55,10.55,0,0,1,10.66,309.6,10.5,10.5,0,0,1,21.33,320a1.9,1.9,0,0,1-3.79,0,6.69,6.69,0,0,0-6.88-6.63A6.75,6.75,0,0,0,3.78,320v41.1a6.74,6.74,0,0,0,6.88,6.62,6.68,6.68,0,0,0,6.88-6.62V342.45H12.3a1.89,1.89,0,0,1,0-3.78h7.14A1.91,1.91,0,0,1,21.33,340.56Z"/><path class="cls-1" d="M10.66,474.72A10.56,10.56,0,0,1,0,464.31v-41.1A10.55,10.55,0,0,1,10.66,412.8a10.56,10.56,0,0,1,10.67,10.41v41.1A10.56,10.56,0,0,1,10.66,474.72Zm0-58.14a6.75,6.75,0,0,0-6.88,6.63v41.1a6.75,6.75,0,0,0,6.88,6.63,6.74,6.74,0,0,0,6.88-6.63v-41.1A6.74,6.74,0,0,0,10.66,416.58Z"/></svg>